<?xml version="1.0" encoding="UTF-8" standalone="no"?>
<svg
   xmlns:dc="http://purl.org/dc/elements/1.1/"
   xmlns:cc="http://creativecommons.org/ns#"
   xmlns:rdf="http://www.w3.org/1999/02/22-rdf-syntax-ns#"
   xmlns:svg="http://www.w3.org/2000/svg"
   xmlns="http://www.w3.org/2000/svg"
   viewBox="0 0 1511.8134 944.88135"
   height="944.88135"
   width="1511.8134"
   xml:space="preserve"
   id="svg2"
   version="1.1"><metadata
     id="metadata8"><rdf:RDF><cc:Work
         rdf:about=""><dc:format>image/svg+xml</dc:format><dc:type
           rdf:resource="http://purl.org/dc/dcmitype/StillImage" /></cc:Work></rdf:RDF></metadata><defs
     id="defs6"><clipPath
       id="clipPath18"
       clipPathUnits="userSpaceOnUse"><path
         id="path16"
         d="M 0,708.661 H 1133.858 V 0 H 0 Z" /></clipPath></defs><g
     transform="matrix(1.3333333,0,0,-1.3333333,0,944.88133)"
     id="g10"><g
       id="g12"><g
         clip-path="url(#clipPath18)"
         id="g14"><g
           transform="translate(863.7953,440.2404)"
           id="g20"><path
             id="path22"
             style="fill:#64b053;fill-opacity:1;fill-rule:nonzero;stroke:none"
             d="m 0,0 c 0.717,0.122 2.927,0.098 2.927,0.098 0.478,-36.253 1.282,-72.486 1.76,-108.738 -13.047,-0.23 -26.037,-1.549 -38.912,-3.653 -0.343,29.097 -1.129,58.175 -1.415,87.272 6.237,5.605 12.11,11.612 18.499,17.045 4.553,4.305 8.036,4.766 13.663,6.955 C -2.622,-0.688 -0.419,-0.071 0,0" /></g><g
           transform="translate(882.6391,440.338)"
           id="g24"><path
             id="path26"
             style="fill:#64b053;fill-opacity:1;fill-rule:nonzero;stroke:none"
             d="m 0,0 h 11.363 c 1.09,-3.73 1.32,-7.652 0.154,-11.402 -7.175,-28.102 -13.737,-56.396 -21.886,-84.25 0.019,31.661 1.932,63.84 2.391,95.52 C -5.21,-0.034 -2.659,-0.172 0,0" /></g><g
           transform="translate(776.312,359.1676)"
           id="g28"><path
             id="path30"
             style="fill:#64b053;fill-opacity:1;fill-rule:nonzero;stroke:none"
             d="m 0,0 c 15.132,17.351 29.978,34.989 46.735,50.811 -0.421,-27.74 -0.344,-55.498 -0.65,-83.256 -5.893,-1.072 -11.727,-2.372 -17.562,-3.731 0.268,21.407 0.631,42.814 0.268,64.221 -3.003,-21.675 -2.468,-43.637 -4.897,-65.368 -13.219,-3.483 -26.209,-7.864 -38.74,-13.296 1.436,11.899 1.11,23.971 2.775,35.812 C -8.915,-9.24 -4.056,-4.897 0,0" /></g><g
           transform="translate(706.1791,272.985)"
           id="g32"><path
             id="path34"
             style="fill:#64b053;fill-opacity:1;fill-rule:nonzero;stroke:none"
             d="M 0,0 C 15.726,18.595 30.724,37.744 45.971,56.702 47.042,48.668 47.77,40.595 48.438,32.521 30.628,24.41 14.616,12.932 0,0" /></g><g
           transform="translate(829.5707,327.9469)"
           id="g36"><path
             id="path38"
             style="fill:#004f8b;fill-opacity:1;fill-rule:nonzero;stroke:none"
             d="m 0,0 c 12.875,2.104 25.864,3.424 38.911,3.653 -4.074,-8.666 -8.474,-17.695 -16.318,-23.606 -16.739,-12.913 -37.362,-19.15 -57.602,-24.085 -27.586,-7.786 -56.243,-9.681 -84.499,-13.411 -1.377,0.173 -4.132,0.498 -5.51,0.67 l 1.626,1.817 c 14.617,12.932 30.628,24.41 48.439,32.522 2.258,1.052 4.554,2.066 6.849,3.042 12.53,5.432 25.52,9.813 38.739,13.295 1.167,0.287 3.481,0.861 4.63,1.148 5.835,1.358 11.669,2.659 17.561,3.73 C -5.395,-0.919 -1.798,-0.307 0,0" /></g><g
           transform="translate(414.3447,362.0563)"
           id="g40"><path
             id="path42"
             style="fill:#628859;fill-opacity:1;fill-rule:nonzero;stroke:none"
             d="m 0,0 c 4.189,-0.077 8.379,-0.115 12.588,-0.096 -0.096,-15.993 -0.096,-31.967 0,-47.94 C 8.59,-47.348 1.569,-49.414 0.287,-44.096 -0.268,-29.423 0.21,-14.692 0,0" /></g><g
           transform="translate(868.4819,331.6003)"
           id="g44"><path
             id="path46"
             style="fill:#4bbeed;fill-opacity:1;fill-rule:nonzero;stroke:none"
             d="M 0,0 C 16.988,-0.019 33.784,-2.506 50.447,-5.548 V -6.16 C 33.383,-18.25 15.63,-29.518 -3.501,-38.069 c -48.285,-21.464 -102.481,-29.499 -154.918,-23.034 28.256,3.731 56.913,5.625 84.499,13.412 20.24,4.935 40.863,11.171 57.602,24.085 C -8.475,-17.695 -4.074,-8.666 0,0" /></g><g
           transform="translate(513.4931,348.1159)"
           id="g48"><path
             id="path50"
             style="fill:#004f8b;fill-opacity:1;fill-rule:nonzero;stroke:none"
             d="m 0,0 c -4.331,0 -8.663,-0.02 -12.993,0.015 -0.981,0.007 -1.325,-0.331 -1.315,-1.319 0.04,-3.849 0.014,-7.7 0.017,-11.55 0.001,-1.602 0.111,-1.712 1.685,-1.713 7.769,-0.002 15.537,-0.013 23.306,0.012 1.054,0.003 2.115,0.144 3.162,0.295 4.29,0.619 6.968,5.908 4.949,10.085 C 17.422,-1.301 15.1,0.006 11.962,0.002 7.975,-0.004 3.987,0 0,0 m -0.297,26.423 c -4.263,0 -8.525,-0.013 -12.786,0.011 -0.867,0.004 -1.23,-0.283 -1.222,-1.195 0.033,-4.09 0.031,-8.18 0,-12.27 -0.007,-0.887 0.306,-1.227 1.196,-1.226 8.455,0.018 16.911,-0.018 25.366,0.034 1.933,0.012 3.766,0.693 5.106,2.112 3.768,3.988 2.238,10.004 -2.111,11.798 -1.049,0.434 -2.247,0.681 -3.382,0.705 -4.055,0.082 -8.112,0.032 -12.167,0.031 M 28.552,6.013 c 1.202,-1.641 2.485,-3.093 3.429,-4.74 2.18,-3.801 2.758,-7.916 1.835,-12.21 -1.481,-6.89 -5.955,-11.119 -12.276,-13.659 -3.216,-1.292 -6.58,-1.848 -10.04,-1.848 -10.968,0.002 -21.937,-0.029 -32.904,0.037 -1.405,0.008 -2.848,0.373 -4.2,0.803 -2.489,0.792 -3.318,2.832 -3.378,5.219 -0.072,2.818 -0.018,5.639 -0.018,8.458 0,14.613 -0.001,29.225 0.002,43.838 0.001,2.914 1.08,4.641 3.761,5.614 1.137,0.413 2.414,0.609 3.629,0.614 11.449,0.045 22.901,0.182 34.347,-0.03 7.198,-0.134 13.448,-2.802 18.004,-8.651 2.437,-3.13 3.601,-6.682 3.471,-10.715 C 34.083,14.646 32.823,11.033 30.279,7.854 29.728,7.167 29.072,6.562 28.552,6.013" /></g><g
           transform="translate(243.7563,348.1159)"
           id="g52"><path
             id="path54"
             style="fill:#004f8b;fill-opacity:1;fill-rule:nonzero;stroke:none"
             d="m 0,0 c -4.333,0 -8.667,-0.02 -13,0.015 -0.98,0.007 -1.325,-0.33 -1.314,-1.319 0.04,-3.851 0.014,-7.703 0.017,-11.554 0.001,-1.603 0.106,-1.708 1.689,-1.709 8.15,-0.002 16.301,-0.037 24.451,0.037 1.261,0.011 2.592,0.351 3.76,0.846 3.124,1.328 4.499,5.052 3.777,8.001 -0.889,3.639 -3.682,5.768 -7.516,5.7 C 7.911,-0.055 3.955,0 0,0 m -0.374,11.752 h 12.377 c 0.068,0 0.138,-0.004 0.206,0.002 4.23,0.383 6.584,2.37 7.21,6.109 0.775,4.631 -2.322,8.478 -7.293,8.534 -8.353,0.095 -16.708,0.029 -25.063,0.024 -1.276,0 -1.357,-0.083 -1.359,-1.337 -0.006,-3.954 -0.004,-7.907 -0.001,-11.861 0.001,-1.398 0.065,-1.468 1.443,-1.469 4.16,-0.005 8.32,-0.002 12.48,-0.002 M 28.598,6.005 c 1.224,-1.659 2.553,-3.16 3.535,-4.862 1.438,-2.495 2.016,-5.24 2.084,-8.167 0.1,-4.333 -1.201,-8.092 -3.882,-11.423 -2.271,-2.821 -5.188,-4.778 -8.521,-6.099 -3.511,-1.392 -7.183,-1.921 -10.961,-1.909 -10.765,0.033 -21.529,0.009 -32.294,0.015 -1.775,0.001 -3.481,0.35 -5.018,1.274 -1.405,0.845 -2.208,2.017 -2.206,3.768 0.026,18.158 0.016,36.316 0.017,54.475 0,2.309 1.657,4.302 3.992,4.621 1.794,0.245 3.611,0.441 5.418,0.448 10.592,0.041 21.186,0.128 31.777,-0.02 6.456,-0.09 12.236,-2.221 16.839,-6.951 2.419,-2.485 4.244,-5.441 4.689,-8.863 C 34.85,16.298 33.615,10.763 28.962,6.41 28.792,6.251 28.649,6.062 28.598,6.005" /></g><g
           transform="translate(422.9086,386.2824)"
           id="g56"><path
             id="path58"
             style="fill:#004f8b;fill-opacity:1;fill-rule:nonzero;stroke:none"
             d="m 0,0 c 13.585,0 27.171,0 40.756,0 1.632,0 1.637,-0.003 1.637,-1.579 0.002,-20.464 0.002,-40.928 0,-61.392 0,-1.638 -0.006,-1.639 -1.685,-1.639 -2.063,0 -4.13,-0.067 -6.19,0.023 -1.718,0.075 -3.392,0.446 -4.828,1.503 -1.895,1.394 -2.097,3.478 -2.107,5.545 -0.045,8.909 -0.02,17.816 -0.02,26.724 -10e-4,4.815 0.003,9.63 -0.003,14.445 -0.002,1.545 -0.119,1.655 -1.633,1.656 -19.122,0.001 -38.245,0.001 -57.368,0 -1.489,-10e-4 -1.524,-0.038 -1.525,-1.599 -10e-4,-15.546 0,-31.092 -10e-4,-46.638 0,-1.657 -0.003,-1.658 -1.633,-1.659 -2.064,-0.001 -4.132,-0.088 -6.19,0.027 -1.958,0.108 -3.89,0.47 -5.374,1.959 -0.964,0.967 -1.443,2.114 -1.441,3.502 0.015,10.215 0.007,20.43 0.007,30.645 0,7.635 0.068,15.271 -0.036,22.906 -0.036,2.649 2.086,4.915 4.342,5.175 1.392,0.159 2.791,0.375 4.187,0.379 C -26.07,0.012 -13.035,0 0,0" /></g><g
           transform="translate(619.1879,354.008)"
           id="g60"><path
             id="path62"
             style="fill:#004f8b;fill-opacity:1;fill-rule:nonzero;stroke:none"
             d="m 0,0 c 0,3.096 -0.082,6.194 0.024,9.286 0.095,2.75 -0.966,4.967 -2.846,6.804 -3.949,3.859 -8.93,5.419 -14.258,5.823 -2.573,0.195 -5.204,-0.127 -7.79,-0.391 -3.938,-0.401 -7.485,-1.911 -10.572,-4.368 -2.514,-2 -4.105,-4.491 -4.049,-7.923 0.1,-6.258 0.059,-12.52 0.013,-18.779 -0.019,-2.574 0.971,-4.651 2.713,-6.451 2.95,-3.046 6.701,-4.607 10.723,-5.463 3.815,-0.813 7.686,-0.838 11.571,-0.165 3.926,0.679 7.544,2.025 10.633,4.545 2.398,1.957 3.968,4.386 3.859,7.693 C -0.08,-6.263 0,-3.13 0,0 m 14.571,0.05 c 0,-3.988 0.081,-7.978 -0.024,-11.964 -0.091,-3.41 -1.576,-6.36 -3.63,-8.996 -3.53,-4.53 -8.231,-7.461 -13.483,-9.601 -4.158,-1.695 -8.464,-2.774 -12.956,-2.878 -3.56,-0.083 -7.157,-0.248 -10.678,0.144 -8.608,0.959 -16.278,4.206 -22.514,10.376 -2.608,2.581 -4.36,5.729 -5.138,9.326 -0.331,1.529 -0.42,3.133 -0.433,4.705 -0.048,5.88 -0.019,11.76 -0.02,17.64 -10e-4,6.811 2.826,12.175 8.136,16.391 3.26,2.588 6.81,4.61 10.692,6.009 2.076,0.748 4.278,1.158 6.435,1.668 4.593,1.084 9.268,1.1 13.921,0.72 7.361,-0.599 14.208,-2.791 20.262,-7.17 3.503,-2.533 6.46,-5.523 8.186,-9.568 0.827,-1.938 1.33,-3.942 1.315,-6.073 C 14.614,7.203 14.634,3.627 14.634,0.05 Z" /></g><g
           transform="translate(703.268,353.9694)"
           id="g64"><path
             id="path66"
             style="fill:#004f8b;fill-opacity:1;fill-rule:nonzero;stroke:none"
             d="m 0,0 c 0,3.164 -0.09,6.33 0.027,9.489 0.097,2.574 -0.95,4.599 -2.633,6.354 -3.949,4.116 -9.064,5.659 -14.519,6.109 -2.535,0.209 -5.132,-0.129 -7.685,-0.378 -3.721,-0.363 -7.087,-1.766 -10.104,-3.954 -2.967,-2.152 -4.74,-4.954 -4.71,-8.768 0.048,-5.948 0.02,-11.897 0.01,-17.845 -0.006,-2.829 1.01,-5.215 3.04,-7.17 3.921,-3.777 8.82,-5.322 14.059,-5.751 2.673,-0.219 5.417,0.064 8.098,0.387 3.874,0.465 7.421,1.924 10.449,4.416 2.499,2.054 4.19,4.534 4.001,8.036 C -0.129,-6.059 0,-3.025 0,0 m 14.623,0.05 c 0,-3.85 0.066,-7.701 -0.021,-11.549 -0.068,-2.909 -1.121,-5.553 -2.712,-7.966 -3.498,-5.299 -8.571,-8.57 -14.304,-10.943 -4.175,-1.729 -8.522,-2.837 -13.05,-2.938 -3.73,-0.084 -7.513,-0.3 -11.191,0.171 -8.529,1.094 -16.199,4.307 -22.293,10.601 -2.722,2.811 -4.577,6.144 -5.008,10.126 -0.137,1.259 -0.244,2.528 -0.25,3.793 -0.026,5.81 0.084,11.622 -0.036,17.43 -0.149,7.115 2.971,12.488 8.412,16.761 3.541,2.781 7.458,4.887 11.74,6.182 2.667,0.807 5.455,1.374 8.229,1.631 3.541,0.326 7.14,0.507 10.681,0.261 C -7.523,33.078 -0.433,30.701 5.744,26.018 9.437,23.22 12.559,19.882 13.89,15.314 14.428,13.466 14.6,11.475 14.676,9.539 14.8,6.38 14.709,3.213 14.709,0.05 Z" /></g><g
           transform="translate(325.9096,373.1164)"
           id="g68"><path
             id="path70"
             style="fill:#004f8b;fill-opacity:1;fill-rule:nonzero;stroke:none"
             d="m 0,0 c -0.399,-0.599 -0.687,-0.924 -0.856,-1.302 -1.727,-3.831 -3.441,-7.666 -5.142,-11.509 -1.202,-2.716 -2.361,-5.452 -3.574,-8.164 -0.376,-0.843 -0.027,-1.044 0.729,-1.044 5.775,0.003 11.549,-0.005 17.322,0.007 1.016,0.002 1.171,0.345 0.747,1.292 -1.689,3.77 -3.359,7.55 -5.039,11.324 C 2.844,-6.376 1.497,-3.357 0,0 m 38.24,-51.414 c -3.951,0 -7.674,-0.202 -11.363,0.063 -3.063,0.22 -5.129,2.107 -6.345,4.999 -1.653,3.935 -3.476,7.797 -5.186,11.707 -0.304,0.696 -0.762,0.895 -1.443,0.887 -1.272,-0.014 -2.545,-10e-4 -3.817,-10e-4 -7.978,10e-4 -15.956,-0.011 -23.934,0.013 -1.028,0.004 -1.574,-0.336 -2.003,-1.334 -2.198,-5.117 -4.499,-10.189 -6.753,-15.282 -0.333,-0.751 -0.759,-1.141 -1.689,-1.109 -2.439,0.082 -4.884,-0.028 -7.323,0.055 -0.9,0.032 -1.842,0.263 -2.673,0.619 -2.232,0.957 -2.862,2.985 -1.732,5.5 2.378,5.294 4.719,10.604 7.084,15.904 2.005,4.493 4.039,8.974 6.031,13.472 2.327,5.251 4.622,10.516 6.933,15.774 1.141,2.597 2.23,5.22 3.447,7.781 1.142,2.405 3.249,3.715 5.662,4.628 3.272,1.238 6.677,1.313 10.048,0.856 3.119,-0.422 6.14,-1.433 8.118,-4.12 0.939,-1.275 1.547,-2.808 2.216,-4.264 1.428,-3.109 2.805,-6.241 4.189,-9.37 1.827,-4.13 3.639,-8.266 5.461,-12.397 1.985,-4.499 3.972,-8.997 5.964,-13.493 1.856,-4.187 3.722,-8.37 5.582,-12.556 1.043,-2.345 2.09,-4.689 3.12,-7.041 0.159,-0.359 0.24,-0.752 0.406,-1.291" /></g><g
           transform="translate(323.205,294.7204)"
           id="g72"><path
             id="path74"
             style="fill:#004f8b;fill-opacity:1;fill-rule:nonzero;stroke:none"
             d="m 0,0 c 0,-2.166 -0.1,-4.338 0.023,-6.497 0.185,-3.241 -1.601,-5.217 -4.232,-6.415 -4.357,-1.985 -8.738,-1.942 -12.977,0.553 -0.303,0.179 -0.905,0.099 -1.254,-0.082 -4.74,-2.462 -9.434,-2.623 -14.034,0.291 -1.978,1.254 -3.019,3.024 -2.96,5.503 0.108,4.466 0.027,8.938 0.034,13.407 0.002,1.483 0.642,2.117 2.122,2.143 2.903,0.05 2.903,0.05 2.903,-2.889 0,-4.16 0.029,-8.321 -0.018,-12.48 -0.013,-1.16 0.408,-1.985 1.334,-2.604 2.258,-1.508 5.267,-1.341 7.486,-0.021 0.916,0.545 1.187,1.404 1.179,2.453 -0.033,4.16 -0.025,8.321 0.002,12.48 0.005,0.603 0.035,1.326 0.356,1.777 0.39,0.547 1.05,1.02 1.69,1.235 0.618,0.209 1.364,0.004 2.047,0.06 0.931,0.077 1.173,-0.346 1.167,-1.214 -0.03,-4.435 -0.015,-8.87 -0.013,-13.305 0.002,-2.902 0.714,-3.67 3.54,-4.344 1.909,-0.455 3.586,-0.053 5.214,0.866 0.877,0.495 1.289,1.243 1.285,2.285 -0.018,4.401 -0.012,8.802 0.022,13.202 0.014,1.874 0.695,2.49 2.594,2.5 C 0,8.918 0,8.918 0,6.395 Z" /></g><g
           transform="translate(269.6801,299.5504)"
           id="g76"><path
             id="path78"
             style="fill:#004f8b;fill-opacity:1;fill-rule:nonzero;stroke:none"
             d="m 0,0 v 0.007 c -1.373,0 -2.747,-0.005 -4.12,0.002 -0.667,0.004 -1.018,-0.265 -1.009,-0.98 0.02,-1.545 0.016,-3.09 0.003,-4.634 -0.006,-0.605 0.28,-0.902 0.862,-0.903 2.712,-0.003 5.427,-0.068 8.134,0.035 1.716,0.066 3.104,1.721 3.028,3.322 C 6.814,-1.379 5.426,-0.039 3.604,-0.005 2.403,0.019 1.202,0 0,0 m 12.133,-18.539 c -2.021,-0.184 -3.903,-0.514 -5.421,0.497 -0.937,0.623 -1.438,1.934 -2.071,2.974 -0.676,1.11 -1.281,2.264 -1.91,3.402 -0.401,0.728 -1.01,1.089 -1.84,1.088 -1.616,-0.003 -3.232,-0.024 -4.847,0.007 -0.896,0.015 -1.203,-0.375 -1.183,-1.249 0.042,-1.89 -0.018,-3.782 0.024,-5.671 0.019,-0.902 -0.329,-1.281 -1.218,-1.173 -0.067,0.008 -0.137,0 -0.206,0.003 -2.781,0.114 -3.811,0.481 -3.74,3.755 0.116,5.359 0.03,10.723 0.032,16.086 0,2.262 0.617,2.892 2.837,2.893 3.918,0.003 7.837,0.007 11.755,-0.001 3.319,-0.008 6.214,-2.152 7.365,-5.255 1.041,-2.805 -0.408,-6.292 -2.796,-7.834 -1.555,-1.004 -1.52,-0.978 -0.622,-2.551 1.268,-2.224 2.474,-4.482 3.841,-6.971" /></g><g
           transform="translate(401.8134,298.1042)"
           id="g80"><path
             id="path82"
             style="fill:#004f8b;fill-opacity:1;fill-rule:nonzero;stroke:none"
             d="m 0,0 c -1.716,-1.126 -4.263,-1.669 -5.882,0.124 -1.081,1.199 -2.642,1.705 -4.259,1.779 -2.126,0.099 -4.271,0.193 -6.211,-0.96 -0.883,-0.525 -1.49,-1.215 -1.338,-2.337 0.146,-1.078 0.841,-1.65 1.846,-1.78 1.723,-0.222 3.458,-0.494 5.188,-0.495 3.302,-10e-4 6.448,-0.4 9.033,-2.686 2.627,-2.323 2.257,-5.666 0.098,-8.05 -1.661,-1.833 -3.874,-2.546 -6.27,-2.97 -2.449,-0.433 -4.875,-0.396 -7.259,0.094 -3.466,0.712 -6.476,2.209 -7.972,5.738 2.687,1.46 4.126,1.587 6.303,-0.395 1.873,-1.706 4.391,-1.791 6.815,-1.581 1.072,0.094 2.135,0.452 3.167,0.795 1.128,0.375 1.91,1.472 1.827,2.364 -0.093,1.001 -1.108,2.059 -2.309,2.161 -2.658,0.225 -5.326,0.326 -7.987,0.522 -1.832,0.135 -3.61,0.593 -5.099,1.688 -3.705,2.723 -3.503,7.549 0.391,10.064 2.29,1.48 4.846,1.944 7.546,1.986 C -9.256,6.11 -6.287,5.653 -3.597,4.014 -2.029,3.058 -0.694,1.843 0,0" /></g><g
           transform="translate(339.9267,298.8151)"
           id="g84"><path
             id="path86"
             style="fill:#004f8b;fill-opacity:1;fill-rule:nonzero;stroke:none"
             d="m 0,0 c -0.25,-0.307 -0.359,-0.395 -0.41,-0.509 -0.884,-1.992 -1.742,-3.997 -2.651,-5.978 -0.358,-0.784 -0.131,-1.092 0.68,-1.092 1.541,-0.001 3.083,-0.018 4.623,0.005 0.917,0.013 1.131,0.401 0.748,1.257 C 2.378,-4.95 1.777,-3.577 1.146,-2.22 0.814,-1.508 0.427,-0.823 0,0 m -0.022,-11.764 c -1.478,-0.001 -2.956,-0.012 -4.433,0.004 -0.657,0.008 -1.071,-0.208 -1.337,-0.867 -0.576,-1.426 -1.262,-2.808 -1.858,-4.226 -0.318,-0.755 -0.778,-1.169 -1.64,-1.084 -0.682,0.069 -1.38,0.015 -2.055,0.121 -1.283,0.2 -1.767,1.062 -1.244,2.244 1.338,3.027 2.725,6.033 4.07,9.057 1.332,2.995 2.639,6.001 3.954,9.004 0.623,1.424 1.737,2.235 3.254,2.293 1.214,0.047 2.458,-0.041 3.649,-0.274 1.094,-0.213 1.763,-1.029 2.224,-2.085 2.818,-6.44 5.667,-12.864 8.542,-19.278 0.398,-0.89 0.133,-1.065 -0.718,-1.084 -4.142,-0.096 -4.431,0.077 -5.966,3.841 -0.952,2.334 -0.952,2.334 -3.453,2.334 z" /></g><g
           transform="translate(230.3056,298.6569)"
           id="g88"><path
             id="path90"
             style="fill:#004f8b;fill-opacity:1;fill-rule:nonzero;stroke:none"
             d="m 0,0 c -0.293,-0.22 -0.558,-0.316 -0.641,-0.496 -0.906,-1.988 -1.807,-3.981 -2.655,-5.994 -0.2,-0.475 0.011,-0.909 0.623,-0.914 1.682,-0.015 3.366,-0.033 5.047,0.022 0.209,0.007 0.628,0.541 0.573,0.673 C 2.015,-4.489 1.022,-2.295 0,0 m 10.57,-17.766 c -2.025,-0.391 -3.253,0.818 -3.981,2.823 -0.268,0.737 -0.721,1.417 -0.925,2.167 -0.263,0.962 -0.837,1.197 -1.748,1.184 -2.786,-0.037 -5.574,-0.058 -8.358,0.012 -0.933,0.023 -1.37,-0.377 -1.687,-1.14 -0.514,-1.232 -1.077,-2.443 -1.573,-3.681 -0.389,-0.969 -0.971,-1.538 -2.097,-1.379 -0.644,0.092 -1.314,0.028 -1.949,0.153 -1.127,0.223 -1.521,0.885 -1.09,1.963 0.811,2.029 1.687,4.033 2.577,6.029 1.865,4.182 3.791,8.335 5.613,12.535 0.507,1.17 1.44,1.686 2.489,1.934 1.507,0.355 3.111,0.492 4.531,-0.279 0.737,-0.401 1.523,-1.048 1.867,-1.782 1.728,-3.684 3.315,-7.435 4.959,-11.161 1.158,-2.623 2.312,-5.249 3.498,-7.859 0.578,-1.274 0.486,-1.469 -0.92,-1.517 -0.309,-0.01 -0.618,-0.002 -1.206,-0.002" /></g><g
           transform="translate(377.9389,303.6247)"
           id="g92"><path
             id="path94"
             style="fill:#004f8b;fill-opacity:1;fill-rule:nonzero;stroke:none"
             d="m 0,0 c -0.97,-1.304 -1.748,-2.376 -2.553,-3.429 -2.375,-3.106 -4.738,-6.223 -7.156,-9.297 -0.654,-0.831 -0.958,-1.666 -0.922,-2.728 0.068,-2.027 -0.005,-4.059 0.03,-6.087 0.014,-0.775 -0.24,-1.178 -1.049,-1.148 -0.24,0.008 -0.48,-0.034 -0.721,-0.035 -2.882,-0.006 -3.363,0.467 -3.363,3.309 -10e-4,1.376 0.079,2.759 -0.034,4.125 -0.059,0.706 -0.31,1.495 -0.728,2.058 -2.658,3.58 -5.405,7.092 -8.067,10.669 -0.349,0.469 -0.625,1.236 -0.498,1.757 0.198,0.807 1.078,0.713 1.805,0.833 2.076,0.345 3.36,-0.577 4.484,-2.228 1.484,-2.181 3.167,-4.228 4.773,-6.325 0.59,-0.772 0.894,-0.775 1.498,0.013 1.69,2.205 3.395,4.401 5.036,6.643 0.918,1.255 1.997,2.009 3.631,1.887 C -2.676,-0.069 -1.506,0 0,0" /></g><g
           transform="translate(252.7582,292.3483)"
           id="g96"><path
             id="path98"
             style="fill:#004f8b;fill-opacity:1;fill-rule:nonzero;stroke:none"
             d="m 0,0 c 0,-3.367 0.005,-6.735 -0.003,-10.104 -0.003,-1.203 -0.182,-1.387 -1.389,-1.352 -3.466,0.099 -3.928,0.667 -3.887,3.886 0.069,5.394 0.016,10.79 0.02,16.185 0.002,2.002 0.656,2.676 2.642,2.656 3.04,-0.029 2.587,0.437 2.612,-2.611 C 0.019,5.773 0,2.887 0,0" /></g></g></g></g></svg>