<?xml version="1.0" encoding="UTF-8"?>
<svg xmlns="http://www.w3.org/2000/svg" xmlns:xlink="http://www.w3.org/1999/xlink" width="346.47pt" height="143.05pt" viewBox="0 0 346.47 143.05" version="1.1">
<defs>
<clipPath id="clip1">
  <path d="M 112 80 L 168 80 L 168 143.050781 L 112 143.050781 Z M 112 80 "/>
</clipPath>
<clipPath id="clip2">
  <path d="M 288 91 L 346.46875 91 L 346.46875 129 L 288 129 Z M 288 91 "/>
</clipPath>
</defs>
<g id="surface1">
<path style=" stroke:none;fill-rule:nonzero;fill:rgb(89.7995%,20.399475%,17.298889%);fill-opacity:1;" d="M 0 11.628906 L 14.015625 11.628906 L 16.40625 54.695313 L 36.402344 11.628906 L 51.101563 11.628906 L 19.140625 74.347656 L 6.496094 74.347656 L 0 11.628906 "/>
<path style=" stroke:none;fill-rule:nonzero;fill:rgb(89.7995%,20.399475%,17.298889%);fill-opacity:1;" d="M 53.152344 11.804688 L 67.167969 11.804688 L 57.082031 60.847656 L 43.066406 60.847656 L 53.152344 11.804688 "/>
<path style=" stroke:none;fill-rule:nonzero;fill:rgb(89.7995%,20.399475%,17.298889%);fill-opacity:1;" d="M 179.785156 79.992188 L 193.800781 79.992188 L 183.714844 129.035156 L 169.699219 129.035156 L 179.785156 79.992188 "/>
<path style=" stroke:none;fill-rule:nonzero;fill:rgb(89.7995%,20.399475%,17.298889%);fill-opacity:1;" d="M 97.328125 31.625 C 98.011719 29.828125 101.160156 18.808594 92.714844 18.808594 C 87.597656 18.808594 84.511719 21.203125 82.140625 25.886719 C 81.09375 28.464844 80.582031 30.175781 80.152344 31.625 Z M 108.316406 40.851563 L 79.640625 40.851563 C 79.296875 42.390625 78.484375 51.789063 89.550781 51.789063 C 96.808594 51.789063 98.953125 50.9375 102.371094 49.226563 L 103.90625 57.429688 C 99.292969 60.167969 94.847656 60.679688 89.894531 61.191406 C 75.496094 61.191406 66.480469 56.917969 66.648438 40.851563 C 66.914063 15.515625 88.402344 10.496094 93.996094 10.605469 C 120.140625 11.117188 108.316406 40.851563 108.316406 40.851563 "/>
<path style=" stroke:none;fill-rule:nonzero;fill:rgb(89.7995%,20.399475%,17.298889%);fill-opacity:1;" d="M 191.660156 31.625 C 192.347656 29.828125 195.496094 18.808594 187.050781 18.808594 C 181.933594 18.808594 178.847656 21.203125 176.476563 25.886719 C 175.429688 28.464844 174.914063 30.175781 174.488281 31.625 Z M 202.652344 40.851563 L 173.976563 40.851563 C 173.636719 42.390625 172.820313 51.789063 183.890625 51.789063 C 191.144531 51.789063 193.289063 50.9375 196.703125 49.226563 L 198.242188 57.429688 C 193.628906 60.167969 189.183594 60.679688 184.230469 61.191406 C 169.832031 61.191406 160.816406 56.917969 160.984375 40.851563 C 161.25 15.515625 182.738281 10.496094 188.328125 10.605469 C 214.476563 11.117188 202.652344 40.851563 202.652344 40.851563 "/>
<path style=" stroke:none;fill-rule:nonzero;fill:rgb(89.7995%,20.399475%,17.298889%);fill-opacity:1;" d="M 121.660156 4.386719 C 121.660156 4.386719 123.324219 1.824219 128.324219 0.605469 C 133.324219 -0.609375 136.980469 0.390625 136.980469 0.390625 L 134.285156 11.886719 L 141.527344 11.886719 L 139.859375 20.730469 L 131.851563 20.921875 L 126.851563 46.105469 C 126.667969 47.007813 125.378906 54.054688 134.222656 51.617188 C 134.222656 51.617188 130.441406 63.089844 119.609375 60.847656 C 116.0625 60.109375 111.148438 56.234375 112.183594 49.507813 L 121.660156 4.386719 "/>
<path style=" stroke:none;fill-rule:nonzero;fill:rgb(89.7995%,20.399475%,17.298889%);fill-opacity:1;" d="M 216.253906 4.386719 C 216.253906 4.386719 217.917969 1.824219 222.914063 0.605469 C 227.914063 -0.609375 231.570313 0.390625 231.570313 0.390625 L 228.878906 11.886719 L 236.117188 11.886719 L 234.453125 20.730469 L 226.441406 20.921875 L 221.441406 46.105469 C 221.257813 47.007813 219.96875 54.054688 228.8125 51.617188 C 228.8125 51.617188 225.03125 63.089844 214.199219 60.847656 C 210.65625 60.109375 205.742188 56.234375 206.773438 49.507813 L 216.253906 4.386719 "/>
<path style=" stroke:none;fill-rule:nonzero;fill:rgb(89.7995%,20.399475%,17.298889%);fill-opacity:1;" d="M 147.90625 11.746094 L 161.457031 11.746094 L 152.101563 58.796875 C 149.148438 72.757813 135.757813 86.082031 118.136719 80.328125 C 111.855469 78.277344 107.625 72 108.523438 65.71875 C 108.523438 65.71875 113.855469 70.347656 121.722656 70.71875 C 132.617188 71.230469 137.546875 60.246094 138.257813 56.875 L 147.90625 11.746094 "/>
<g clip-path="url(#clip1)" clip-rule="nonzero">
<path style=" stroke:none;fill-rule:nonzero;fill:rgb(89.7995%,20.399475%,17.298889%);fill-opacity:1;" d="M 153.769531 120.0625 L 153.769531 94.324219 L 139.347656 120.0625 Z M 153.8125 129.035156 L 134.84375 129.035156 L 126.472656 143.050781 L 112.800781 143.050781 L 150.566406 80.007813 L 165.261719 80.007813 L 167.652344 143.050781 L 153.8125 143.050781 L 153.8125 129.035156 "/>
</g>
<path style=" stroke:none;fill-rule:nonzero;fill:rgb(89.7995%,20.399475%,17.298889%);fill-opacity:1;" d="M 221.828125 88.917969 C 219.585938 88.339844 214.648438 87.957031 212.40625 88.917969 L 204.074219 129.164063 L 190.167969 129.164063 L 199.78125 82.957031 C 207.855469 78.214844 217.917969 78.152344 225.097656 79.175781 L 221.828125 88.917969 "/>
<path style=" stroke:none;fill-rule:nonzero;fill:rgb(89.7995%,20.399475%,17.298889%);fill-opacity:1;" d="M 227.414063 126.625 C 226.058594 128.996094 223.3125 129.976563 221.285156 128.816406 C 219.253906 127.648438 218.707031 124.789063 220.0625 122.417969 C 221.417969 120.046875 224.160156 119.070313 226.195313 120.230469 C 228.222656 121.394531 228.769531 124.257813 227.414063 126.625 "/>
<path style=" stroke:none;fill-rule:nonzero;fill:rgb(89.7995%,20.399475%,17.298889%);fill-opacity:1;" d="M 253.355469 119.742188 L 254.253906 126.085938 C 250.472656 129.417969 243.773438 129.1875 240.859375 128.074219 C 231.632813 124.550781 232.761719 112.863281 234.132813 107.503906 C 235.539063 101.976563 237.847656 97.953125 241.308594 94.75 C 245.027344 91.847656 249.574219 90.261719 254.804688 91.386719 C 259.0625 92.183594 261.113281 93.914063 261.113281 93.914063 L 257.652344 99.300781 C 249.574219 94.941406 244.246094 106.941406 243.742188 110.515625 C 242.144531 121.984375 248.488281 122.882813 253.355469 119.742188 "/>
<path style=" stroke:none;fill-rule:nonzero;fill:rgb(89.7995%,20.399475%,17.298889%);fill-opacity:1;" d="M 278.992188 110.707031 C 277.574219 118.433594 274.347656 122.035156 270.277344 121.984375 C 266.203125 121.242188 266.113281 117.4375 267.527344 109.714844 C 268.945313 101.980469 272.007813 97.492188 276.558594 97.632813 C 280.726563 97.761719 280.410156 102.984375 278.992188 110.707031 Z M 281.828125 91.824219 C 271.6875 88.53125 263.851563 93.464844 258.996094 104.554688 C 254.144531 115.640625 255.304688 124.476563 264.253906 128.394531 C 273.351563 131.214844 282.46875 128.078125 287.324219 116.988281 C 292.175781 105.898438 291.121094 94.839844 281.828125 91.824219 "/>
<g clip-path="url(#clip2)" clip-rule="nonzero">
<path style=" stroke:none;fill-rule:nonzero;fill:rgb(89.7995%,20.399475%,17.298889%);fill-opacity:1;" d="M 340.835938 128.714844 L 330.195313 128.714844 L 335.515625 103.273438 C 336.988281 99.171875 333.511719 97.953125 332.503906 97.824219 C 329.429688 97.441406 326.5 98.769531 326.097656 99.875 L 320.136719 128.714844 L 309.5625 128.714844 L 314.945313 102.761719 C 315.351563 101.65625 315.457031 98.53125 311.226563 97.824219 C 310.644531 97.730469 307.125 97.375 305.589844 98.660156 L 299.5 128.714844 L 288.859375 128.714844 C 288.5625 128.714844 296.039063 94.171875 296.039063 94.171875 C 302.960938 91.03125 309.5625 91.289063 309.5625 91.289063 C 318.980469 91.480469 321.839844 95.003906 322.058594 95.003906 C 322.28125 95.003906 328.210938 91.609375 335.453125 91.289063 C 343.207031 91.289063 347.757813 97.570313 346.152344 102.503906 L 340.835938 128.714844 "/>
</g>
</g>
</svg>
